<svg xmlns="http://www.w3.org/2000/svg" version="1.1" xmlnsxlink="http://www.w3.org/1999/xlink" xmlnssvgjs="http://svgjs.dev/svgjs" width="2000" height="1414" viewBox="0 0 2000 1414"><g transform="matrix(1,0,0,1,-1.2121212121212466,-0.70699999999988)"><svg viewBox="0 0 396 280" data-background-color="#ffffff" preserveAspectRatio="xMidYMid meet" height="1414" width="2000" xmlns="http://www.w3.org/2000/svg" xmlnsxlink="http://www.w3.org/1999/xlink"><g id="tight-bounds" transform="matrix(1,0,0,1,0.2400000000000091,0.13999999999998636)"><svg viewBox="0 0 395.52 279.72" height="279.72" width="395.52"><g><svg viewBox="0 0 395.52 279.72" height="279.72" width="395.52"><g><svg viewBox="0 0 395.52 279.72" height="279.72" width="395.52"><g><svg viewBox="0 0 395.52 279.72" height="279.72" width="395.52"><g><svg viewBox="0 0 395.52 279.72" height="279.72" width="395.52"><g transform="matrix(1,0,0,1,139.39557505146007,73.92936372216631)"><svg viewBox="0 0 116.72884989707987 131.8612725556674" height="131.8612725556674" width="116.72884989707987"><g><svg xmlns="http://www.w3.org/2000/svg" xmlnsxlink="http://www.w3.org/1999/xlink" version="1.1" x="0" y="0" viewBox="6.890999794006348 1.1219940185546875 85.82400512695312 96.95000457763672" enable-background="new 0 0 100 100" xmlspace="preserve" height="131.8612725556674" width="116.72884989707987" class="icon-o-0" data-fill-palette-color="accent" id="o-0"><g fill="#f19aff" data-fill-palette-color="accent"><path fill="#f19aff" d="M64.008 72.381c4.002-3.149 12.23-11.582 15.089-21.179-6.511-8.01-33.912-42.187-40.238-50.08C38.212 8.613 31.63 24.377 20.21 29.646c-5.247 2.56-10.477 4.156-12.467 4.721l39.077 47.32C51.235 80.263 59.958 75.56 64.008 72.381z" data-fill-palette-color="accent"></path><g fill="#f19aff" data-fill-palette-color="accent"><g fill="#f19aff" data-fill-palette-color="accent"><path fill="#f19aff" d="M90.405 75.352c-6.5 3.781-13.381 7.281-20.674 9.929-8.632 3.134-19.05 6.681-22.386 7.664v5.127l43.046-15.479L90.405 75.352z" data-fill-palette-color="accent"></path><polygon fill="#f19aff" points="6.891,35.865 6.891,50.088 45.703,97.945 45.736,82.902    " data-fill-palette-color="accent"></polygon></g><path fill="#f19aff" d="M88.717 70.42c-5.018 3.936-11.386 7.921-18.278 11.363-6.521 3.266-20.879 7.668-23.093 8.339v1.144c3.686-1.09 13.036-3.898 21.237-7.013 9.104-3.457 22.12-11.628 22.12-11.628L88.717 70.42z" data-fill-palette-color="accent"></path></g><path fill="#f19aff" d="M80.877 50.835l-0.114 0.403c-2.851 10.142-11.25 18.858-15.762 22.409-4.225 3.319-13.009 8.054-17.655 9.561v2.168c6.53-2.034 15.656-6.36 20.721-9.922 8.699-6.128 17.195-14.63 22.419-22.404l0.047 0.036C84.648 46.442 51.938 9.001 49.818 6.309c-0.719 1.357-1.368 2.265-2.422 2.887 10.832 13.508 28.598 35.647 33.217 41.314L80.877 50.835z" data-fill-palette-color="accent"></path><path fill="#f19aff" d="M87.321 59.925c0 0-11.588 12.1-18.328 16.846-5.696 4.008-14.5 7.942-21.647 10.168v1.498c0.692-0.212 1.838-0.566 3.268-1.021 5.266-1.677 14.41-4.722 19.106-7.072 9.305-4.648 17.623-10.274 22.834-15.386 0.054-0.053 0.106-0.106 0.161-0.16L87.321 59.925z" data-fill-palette-color="accent"></path></g></svg></g></svg></g><path d="M85.468 82.007V82.007C86.969 82.549 88.089 83.391 88.826 84.535 89.564 85.678 89.956 87.002 90.003 88.507 90.056 90.015 89.802 91.545 89.242 93.097V93.097L84.591 105.989 57.9 96.359 63.054 82.073C63.506 80.82 64.227 79.858 65.217 79.187 66.216 78.512 67.322 78.116 68.536 78.001 69.756 77.887 70.929 78.034 72.055 78.44V78.44C73.333 78.901 74.43 79.668 75.345 80.738 76.263 81.803 76.772 83.061 76.873 84.514V84.514C77.876 83.15 79.126 82.235 80.625 81.769 82.123 81.303 83.737 81.383 85.468 82.007ZM82.607 86.885V86.885C81.927 86.639 81.27 86.557 80.637 86.638 79.997 86.716 79.438 86.931 78.959 87.283 78.473 87.633 78.121 88.11 77.903 88.714V88.714L75.028 96.682 82.061 99.22 84.843 91.51C85.068 90.886 85.118 90.26 84.992 89.633 84.866 89.005 84.593 88.446 84.173 87.957 83.753 87.467 83.231 87.11 82.607 86.885ZM66.786 85.631L64.207 92.778 70.934 95.205 73.431 88.287C73.639 87.708 73.693 87.131 73.592 86.555 73.482 85.983 73.228 85.46 72.831 84.986 72.438 84.521 71.889 84.161 71.183 83.906V83.906C70.508 83.663 69.873 83.581 69.276 83.66 68.677 83.746 68.162 83.959 67.73 84.3 67.298 84.64 66.983 85.084 66.786 85.631ZM151.485 30.741V30.741C149.585 31.579 147.701 31.974 145.832 31.926 143.96 31.872 142.19 31.463 140.522 30.698 138.863 29.937 137.383 28.901 136.08 27.59 134.774 26.289 133.756 24.809 133.024 23.15V23.15C132.263 21.424 131.86 19.632 131.816 17.773 131.764 15.911 132.034 14.118 132.626 12.394 133.215 10.663 134.126 9.093 135.36 7.684 136.591 6.283 138.131 5.175 139.981 4.359V4.359C141.856 3.532 143.737 3.154 145.623 3.223 147.503 3.296 149.27 3.725 150.925 4.51 152.58 5.296 154.057 6.333 155.358 7.622 156.652 8.914 157.665 10.389 158.396 12.048V12.048C159.15 13.755 159.557 15.534 159.619 17.385 159.675 19.237 159.409 21.029 158.819 22.76 158.23 24.491 157.318 26.05 156.082 27.438 154.849 28.832 153.316 29.933 151.485 30.741ZM138.148 20.89V20.89C138.644 22.017 139.294 23.027 140.095 23.923 140.897 24.819 141.799 25.533 142.803 26.066 143.813 26.596 144.891 26.893 146.035 26.958 147.186 27.019 148.358 26.787 149.553 26.26V26.26C150.772 25.722 151.747 24.993 152.479 24.071 153.207 23.158 153.705 22.141 153.971 21.018 154.231 19.898 154.299 18.745 154.174 17.558 154.046 16.38 153.75 15.265 153.286 14.213V14.213C152.792 13.093 152.141 12.094 151.333 11.216 150.515 10.335 149.604 9.628 148.601 9.095 147.597 8.562 146.521 8.268 145.373 8.212 144.222 8.151 143.062 8.378 141.892 8.894V8.894C140.649 9.442 139.669 10.17 138.953 11.077 138.233 11.993 137.738 13.007 137.466 14.117 137.201 15.225 137.131 16.364 137.256 17.536 137.378 18.702 137.675 19.82 138.148 20.89ZM243.568 30.978V30.978C241.654 30.171 240.074 29.071 238.826 27.679 237.581 26.28 236.664 24.712 236.076 22.974 235.492 21.245 235.229 19.457 235.289 17.61 235.339 15.767 235.717 14.011 236.421 12.341V12.341C237.154 10.602 238.182 9.079 239.504 7.772 240.822 6.457 242.312 5.422 243.972 4.669 245.636 3.91 247.403 3.496 249.275 3.427 251.138 3.361 253.001 3.721 254.864 4.507V4.507C256.752 5.303 258.318 6.411 259.561 7.831 260.799 9.248 261.699 10.828 262.264 12.571 262.828 14.314 263.087 16.1 263.042 17.931 262.99 19.759 262.612 21.508 261.908 23.178V23.178C261.183 24.898 260.168 26.415 258.865 27.73 257.556 29.042 256.069 30.078 254.406 30.837 252.742 31.596 250.982 32.002 249.125 32.055 247.264 32.115 245.412 31.756 243.567 30.978ZM241.581 14.517V14.517C241.103 15.651 240.813 16.817 240.711 18.015 240.61 19.212 240.71 20.359 241.011 21.455 241.318 22.553 241.841 23.541 242.58 24.418 243.325 25.297 244.298 25.99 245.501 26.498V26.498C246.729 27.015 247.929 27.224 249.101 27.124 250.265 27.028 251.347 26.691 252.346 26.114 253.339 25.535 254.224 24.793 255.002 23.888 255.772 22.986 256.38 22.006 256.826 20.947V20.947C257.302 19.819 257.582 18.659 257.666 17.469 257.746 16.27 257.635 15.122 257.334 14.026 257.033 12.93 256.508 11.946 255.761 11.073 255.016 10.193 254.055 9.505 252.877 9.009V9.009C251.625 8.48 250.423 8.267 249.271 8.369 248.111 8.474 247.034 8.809 246.04 9.373 245.052 9.94 244.175 10.671 243.409 11.566 242.645 12.455 242.036 13.439 241.581 14.517ZM304.651 91.951L302.652 86.818 329.053 76.532 331.053 81.665 318.509 86.552 335.414 92.748 337.62 98.41 321.941 92.847 311.428 109.344 309.163 103.53 317.359 90.865 312.544 88.876ZM78.786 194.896V194.896C77.484 195.352 76.236 195.42 75.042 195.1 73.839 194.776 72.771 194.15 71.837 193.223 70.901 192.29 70.197 191.149 69.726 189.803V189.803L65.548 177.873 90.682 169.072 95.057 181.567C95.471 182.748 95.515 183.879 95.192 184.959 94.868 186.04 94.298 186.981 93.482 187.783 92.66 188.587 91.719 189.174 90.66 189.545V189.545C89.434 189.974 88.173 190.065 86.875 189.817 85.583 189.567 84.477 188.955 83.555 187.98V187.98C83.633 189.573 83.247 190.987 82.397 192.223 81.547 193.46 80.343 194.35 78.786 194.896ZM78.224 191.481V191.481C79.003 191.208 79.661 190.784 80.198 190.21 80.743 189.639 81.115 188.993 81.314 188.271 81.513 187.549 81.48 186.812 81.216 186.059V186.059L78.068 177.068 69.422 180.095 72.483 188.837C72.756 189.616 73.203 190.248 73.824 190.732 74.445 191.217 75.146 191.53 75.927 191.673 76.699 191.811 77.465 191.747 78.224 191.481ZM91.917 181.441L89.041 173.226 80.644 176.166 83.447 184.17C83.71 184.924 84.135 185.524 84.722 185.97 85.3 186.413 85.968 186.695 86.727 186.816 87.477 186.933 88.232 186.859 88.992 186.593V186.593C89.79 186.313 90.446 185.905 90.959 185.366 91.475 184.834 91.828 184.224 92.016 183.534 92.198 182.847 92.165 182.149 91.917 181.441ZM81.321 212.33V212.33C80.339 210.735 79.763 209.092 79.595 207.4 79.437 205.711 79.615 204.052 80.13 202.425 80.642 200.806 81.429 199.317 82.489 197.957 83.544 196.601 84.797 195.475 86.249 194.582V194.582C87.757 193.653 89.367 193.035 91.076 192.729 92.784 192.432 94.474 192.435 96.147 192.74 97.814 193.047 99.364 193.657 100.799 194.568 102.225 195.478 103.411 196.701 104.358 198.239V198.239C105.341 199.834 105.9 201.483 106.035 203.187 106.175 204.896 105.98 206.56 105.453 208.18 104.922 209.794 104.131 211.277 103.082 212.63 102.039 213.98 100.803 215.094 99.375 215.974V215.974C97.86 216.906 96.253 217.527 94.552 217.836 92.85 218.153 91.165 218.158 89.498 217.85 87.822 217.54 86.277 216.927 84.863 216.011 83.445 215.089 82.264 213.862 81.321 212.33ZM88.041 197.493V197.493C86.89 198.202 85.889 199.073 85.039 200.104 84.192 201.142 83.564 202.256 83.153 203.446 82.746 204.642 82.592 205.869 82.691 207.126 82.79 208.383 83.202 209.599 83.925 210.774V210.774C84.673 211.989 85.598 212.917 86.699 213.557 87.795 214.201 88.976 214.598 90.243 214.747 91.507 214.89 92.78 214.809 94.062 214.504 95.343 214.199 96.528 213.712 97.617 213.041V213.041C98.763 212.336 99.755 211.471 100.593 210.446 101.428 209.415 102.053 208.296 102.468 207.087 102.884 205.878 103.038 204.652 102.93 203.407 102.823 202.162 102.417 200.967 101.711 199.821V199.821C100.963 198.606 100.047 197.673 98.963 197.022 97.869 196.369 96.691 195.971 95.427 195.828 94.16 195.679 92.89 195.75 91.616 196.042 90.339 196.328 89.147 196.812 88.041 197.493ZM100.042 235.841V235.841C98.736 234.498 97.816 233.019 97.283 231.405 96.76 229.791 96.573 228.133 96.72 226.433 96.868 224.742 97.311 223.117 98.05 221.558 98.784 220.004 99.762 218.633 100.983 217.445V217.445C102.254 216.209 103.689 215.256 105.291 214.584 106.893 213.922 108.543 213.558 110.242 213.49 111.936 213.427 113.583 213.684 115.182 214.261 116.771 214.838 118.195 215.773 119.455 217.067V217.067C120.761 218.41 121.666 219.898 122.17 221.531 122.678 223.169 122.851 224.836 122.689 226.531 122.523 228.222 122.075 229.842 121.346 231.391 120.621 232.936 119.658 234.293 118.456 235.462V235.462C117.181 236.703 115.747 237.659 114.155 238.33 112.563 239.011 110.919 239.383 109.225 239.446 107.522 239.509 105.88 239.247 104.3 238.661 102.716 238.07 101.296 237.13 100.042 235.841ZM103.367 219.895V219.895C102.398 220.839 101.611 221.906 101.006 223.098 100.406 224.295 100.036 225.519 99.894 226.771 99.757 228.027 99.874 229.257 100.245 230.463 100.616 231.668 101.282 232.766 102.244 233.755V233.755C103.239 234.777 104.344 235.481 105.558 235.866 106.768 236.256 108.007 236.385 109.276 236.254 110.541 236.119 111.765 235.763 112.95 235.186 114.134 234.609 115.185 233.875 116.101 232.984V232.984C117.066 232.045 117.845 230.985 118.44 229.802 119.031 228.614 119.397 227.385 119.538 226.115 119.68 224.845 119.563 223.614 119.187 222.423 118.812 221.231 118.154 220.154 117.216 219.189V219.189C116.221 218.166 115.123 217.455 113.924 217.056 112.714 216.657 111.477 216.525 110.213 216.661 108.944 216.791 107.719 217.138 106.54 217.701 105.356 218.258 104.298 218.99 103.367 219.895ZM117.153 250.487L114.353 248.597 129.232 226.56 132.032 228.451 123.806 240.633 143.43 236.098 146.449 238.136 131.019 241.88 132.043 260.541 128.907 258.423 128.109 242.364 121.706 243.744ZM161.86 247.322L159.334 249.218C159.199 248.777 158.966 248.309 158.635 247.813 158.303 247.317 157.9 246.824 157.427 246.333 156.959 245.845 156.419 245.381 155.806 244.941 155.192 244.501 154.516 244.122 153.777 243.804V243.804C151.894 242.995 150.352 242.755 149.15 243.085 147.951 243.409 147.084 244.192 146.55 245.435V245.435C146.173 246.311 146.107 247.099 146.35 247.8 146.594 248.501 147.121 249.218 147.933 249.949 148.751 250.684 149.82 251.537 151.14 252.509V252.509C152.684 253.607 153.965 254.687 154.981 255.75 155.99 256.809 156.636 257.926 156.919 259.1 157.211 260.271 157.041 261.593 156.408 263.066V263.066C155.906 264.234 155.245 265.153 154.427 265.825 153.608 266.496 152.675 266.938 151.627 267.15 150.582 267.371 149.463 267.38 148.27 267.176 147.074 266.978 145.845 266.609 144.584 266.066V266.066C143.341 265.532 142.187 264.878 141.121 264.103 140.046 263.332 139.091 262.465 138.253 261.502 137.413 260.544 136.696 259.489 136.102 258.336V258.336L138.71 256.354C138.908 256.903 139.221 257.494 139.649 258.126 140.07 258.756 140.584 259.393 141.191 260.037 141.797 260.68 142.497 261.287 143.291 261.856 144.078 262.422 144.931 262.903 145.851 263.298V263.298C147.597 264.049 149.086 264.317 150.319 264.104 151.561 263.886 152.443 263.169 152.967 261.951V261.951C153.362 261.031 153.408 260.179 153.105 259.394 152.8 258.614 152.198 257.815 151.299 256.994 150.403 256.167 149.275 255.245 147.917 254.227V254.227C146.44 253.106 145.243 252.054 144.326 251.071 143.412 250.097 142.85 249.086 142.638 248.038 142.417 246.993 142.583 245.828 143.135 244.541V244.541C143.808 242.976 144.755 241.818 145.975 241.069 147.198 240.314 148.596 239.947 150.169 239.968 151.737 239.986 153.359 240.356 155.037 241.077V241.077C156.137 241.55 157.116 242.107 157.974 242.748 158.826 243.386 159.575 244.091 160.223 244.863 160.873 245.628 161.419 246.448 161.86 247.322ZM165.599 272.934L180.259 248.167 183.079 248.58 189.981 276.505 186.417 275.983 184.436 267.808 173.375 266.188 169.163 273.456ZM174.418 263.685L184.074 265.1 181.099 252.227ZM214.781 275.558L197.822 255.898 198.738 276.279 195.363 276.43 194.168 249.827 197.015 249.699 214.216 269.764 213.283 249.009 216.658 248.857 217.852 275.42ZM235.067 270.913L226.168 273.371 219.079 247.702 227.978 245.244C230.722 244.486 233.174 244.423 235.334 245.054 237.496 245.692 239.305 246.855 240.761 248.544 242.208 250.228 243.259 252.254 243.912 254.62V254.62C244.63 257.221 244.751 259.626 244.273 261.835 243.789 264.045 242.767 265.934 241.208 267.502 239.643 269.077 237.596 270.215 235.067 270.913ZM240.626 255.527V255.527C240.094 253.598 239.266 251.985 238.143 250.688 237.012 249.387 235.655 248.502 234.073 248.034 232.492 247.565 230.726 247.6 228.777 248.139V248.139L223.135 249.697 228.625 269.577 234.267 268.019C236.243 267.473 237.784 266.574 238.89 265.321 239.996 264.068 240.69 262.593 240.972 260.894 241.26 259.194 241.145 257.405 240.626 255.527ZM254.089 249.281V249.281C253.23 247.904 252.625 246.404 252.274 244.781 251.925 243.149 251.87 241.502 252.108 239.839 252.351 238.172 252.939 236.598 253.872 235.115 254.804 233.633 256.12 232.362 257.818 231.302V231.302C259.832 230.045 261.85 229.428 263.872 229.449 265.889 229.475 267.697 229.989 269.295 230.992V230.992L267.953 233.862C266.911 233.189 265.871 232.786 264.831 232.654 263.792 232.521 262.8 232.586 261.856 232.848 260.915 233.116 260.063 233.488 259.3 233.964V233.964C258.049 234.745 257.099 235.688 256.45 236.795 255.805 237.907 255.417 239.093 255.287 240.354 255.157 241.615 255.256 242.873 255.584 244.127 255.912 245.381 256.408 246.539 257.07 247.6V247.6C257.797 248.765 258.693 249.768 259.76 250.609 260.823 251.444 261.963 252.057 263.178 252.446 264.397 252.841 265.638 252.984 266.901 252.874 268.158 252.767 269.348 252.363 270.473 251.661V251.661C271.259 251.171 271.979 250.53 272.634 249.739 273.288 248.948 273.794 248.035 274.152 246.998 274.51 245.962 274.611 244.846 274.456 243.652V243.652L277.651 243.464C277.888 244.879 277.764 246.283 277.279 247.678 276.794 249.073 276.077 250.345 275.128 251.495 274.18 252.645 273.12 253.585 271.95 254.315V254.315C270.406 255.278 268.778 255.832 267.066 255.975 265.351 256.113 263.675 255.919 262.039 255.393 260.398 254.87 258.886 254.076 257.503 253.009 256.115 251.947 254.977 250.704 254.089 249.281ZM280.356 212.67L282.816 210.37 301.003 229.822 298.543 232.122 290.271 223.274 279.555 233.292 287.828 242.14 285.36 244.448 267.173 224.995 269.641 222.688 277.504 231.099 288.22 221.081ZM307.878 220.983L305.775 223.627 284.932 207.052 287.035 204.408ZM321.379 198.862L312.047 214.522 289.171 200.889 290.901 197.988 311.197 210.083 318.8 197.325ZM329.742 176.801L323.217 193.823 298.351 184.292 299.56 181.137 321.622 189.594 326.938 175.726ZM58.641 138.426C58.641 132.397 63.529 127.509 69.558 127.509 75.587 127.509 80.474 132.397 80.474 138.426 80.474 144.455 75.587 149.343 69.558 149.343 63.529 149.343 58.641 144.455 58.641 138.426ZM314.037 138.426C314.037 132.397 318.925 127.509 324.954 127.509 330.983 127.509 335.871 132.397 335.871 138.426 335.871 144.455 330.983 149.343 324.954 149.343 318.925 149.343 314.037 144.455 314.037 138.426Z" fill="#a41fbe" data-fill-palette-color="primary"></path></svg></g></svg></g></svg></g></svg></g><defs></defs></svg><rect width="395.52" height="279.72" fill="none" stroke="none" visibility="hidden"></rect></g></svg></g></svg>